HIERARCHY
ROOT Hips
{
	OFFSET 0.000000 0.000000 0.000000
	CHANNELS 6 Xposition Yposition Zposition Zrotation Yrotation Xrotation 
	JOINT LHipJoint
	{
		OFFSET 0.000000 0.000000 0.000000
		CHANNELS 3 Zrotation Yrotation Xrotation
		JOINT LeftUpLeg
		{
			OFFSET 1.363060 -1.794630 0.839290
			CHANNELS 3 Zrotation Yrotation Xrotation
			JOINT LeftLeg
			{
				OFFSET 2.448110 -6.726130 0.000000
				CHANNELS 3 Zrotation Yrotation Xrotation
				JOINT LeftFoot
				{
					OFFSET 2.562200 -7.039590 0.000000
					CHANNELS 3 Zrotation Yrotation Xrotation
					JOINT LeftToeBase
					{
						OFFSET 0.157640 -0.433110 2.322550
						CHANNELS 3 Zrotation Yrotation Xrotation
						End Site
						{
							OFFSET 0.000000 0.000000 0.000000
						}
					}
				}
			}
		}
	}
	JOINT RHipJoint
	{
		OFFSET 0.000000 0.000000 0.000000
		CHANNELS 3 Zrotation Yrotation Xrotation
		JOINT RightUpLeg
		{
			OFFSET -1.305520 -1.794630 0.839290
			CHANNELS 3 Zrotation Yrotation Xrotation
			JOINT RightLeg
			{
				OFFSET -2.542530 -6.985550 0.000000
				CHANNELS 3 Zrotation Yrotation Xrotation
				JOINT RightFoot
				{
					OFFSET -2.568260 -7.056230 0.000000
					CHANNELS 3 Zrotation Yrotation Xrotation
					JOINT RightToeBase
					{
						OFFSET -0.164730 -0.452590 2.363150
						CHANNELS 3 Zrotation Yrotation Xrotation
						End Site
						{
							OFFSET 0.000000 0.000000 0.000000
						}
					}
				}
			}
		}
	}
	JOINT LowerBack
	{
		OFFSET 0.000000 0.000000 0.000000
		CHANNELS 3 Zrotation Yrotation Xrotation
		JOINT Spine
		{
			OFFSET 0.028270 2.035590 -0.193380
			CHANNELS 3 Zrotation Yrotation Xrotation
			JOINT Spine1
			{
				OFFSET 0.056720 2.048850 -0.042750
				CHANNELS 3 Zrotation Yrotation Xrotation
				JOINT Neck
				{
					OFFSET 0.000000 0.000000 0.000000
					CHANNELS 3 Zrotation Yrotation Xrotation
					JOINT Neck1
					{
						OFFSET -0.054170 1.746240 0.172020
						CHANNELS 3 Zrotation Yrotation Xrotation
						JOINT Head
						{
							OFFSET 0.104070 1.761360 -0.123970
							CHANNELS 3 Zrotation Yrotation Xrotation
							End Site
							{
								OFFSET 0.000000 0.000000 0.000000
							}
						}
					}
				}
				JOINT LeftShoulder
				{
					OFFSET 0.000000 0.000000 0.000000
					CHANNELS 3 Zrotation Yrotation Xrotation
					JOINT LeftArm
					{
						OFFSET 3.362410 1.200890 -0.311210
						CHANNELS 3 Zrotation Yrotation Xrotation
						JOINT LeftForeArm
						{
							OFFSET 4.983000 -0.000000 -0.000000
							CHANNELS 3 Zrotation Yrotation Xrotation
							JOINT LeftHand
							{
								OFFSET 3.483560 -0.000000 -0.000000
								CHANNELS 3 Zrotation Yrotation Xrotation
								JOINT LeftFingerBase
								{
									OFFSET 0.000000 0.000000 0.000000
									CHANNELS 3 Zrotation Yrotation Xrotation
									JOINT LeftHandIndex1
									{
										OFFSET 0.715260 -0.000000 -0.000000
										CHANNELS 3 Zrotation Yrotation Xrotation
										End Site
										{
											OFFSET 0.000000 0.000000 0.000000
										}
									}
								}
								JOINT LThumb
								{
									OFFSET 0.000000 0.000000 0.000000
									CHANNELS 3 Zrotation Yrotation Xrotation
									End Site
									{
										OFFSET 0.000000 0.000000 0.000000
									}
								}
							}
						}
					}
				}
				JOINT RightShoulder
				{
					OFFSET 0.000000 0.000000 0.000000
					CHANNELS 3 Zrotation Yrotation Xrotation
					JOINT RightArm
					{
						OFFSET -3.136600 1.374050 -0.404650
						CHANNELS 3 Zrotation Yrotation Xrotation
						JOINT RightForeArm
						{
							OFFSET -5.241900 -0.000000 -0.000000
							CHANNELS 3 Zrotation Yrotation Xrotation
							JOINT RightHand
							{
								OFFSET -3.444170 -0.000000 -0.000000
								CHANNELS 3 Zrotation Yrotation Xrotation
								JOINT RightFingerBase
								{
									OFFSET 0.000000 0.000000 0.000000
									CHANNELS 3 Zrotation Yrotation Xrotation
									JOINT RightHandIndex1
									{
										OFFSET -0.622530 -0.000000 -0.000000
										CHANNELS 3 Zrotation Yrotation Xrotation
										End Site
										{
											OFFSET 0.000000 0.000000 0.000000
										}
									}
								}
								JOINT RThumb
								{
									OFFSET 0.000000 0.000000 0.000000
									CHANNELS 3 Zrotation Yrotation Xrotation
									End Site
									{
										OFFSET 0.000000 0.000000 0.000000
									}
								}
							}
						}
					}
				}
			}
		}
	}
}
MOTION
Frames: 5
Frame Time: 0.008333
-18.502393 18.296153 -4.191219 173.602634 -74.228425 -155.826214 -5.568627 -0.933629 -2.009407 -4.071604 -17.271536 -19.198663 -0.784469 7.389805 18.497431 -6.952527 21.673525 3.754085 0.019300 -0.897000 -2.465500 5.887527 1.038287 -1.021802 10.186062 17.825397 -11.525237 0.222122 -6.684127 17.720386 9.614287 -36.535056 -9.227025 -0.000200 -0.089100 0.244900 -4.987459 0.808232 -5.758325 0.106152 1.060622 -11.073654 -0.236932 0.566898 -3.164568 -6.419125 0.723484 -7.723024 16.425649 -3.107758 27.106810 2.961200 0.008500 4.052000 -7.467610 -7.203650 2.206011 -86.549493 -3.771094 -21.990664 8.679021 -9.215955 -0.886498 -0.116183 0.897979 74.295070 -1.641570 24.592873 -0.308400 -7.125000 0.000000 0.000000 -30.346200 51.772500 -5.481900 6.563298 6.947573 2.164755 91.021161 -0.376086 14.210460 -10.162428 13.642060 -1.278929 -0.787473 -0.224796 29.675627 -17.182896 10.606648 -3.331900 7.125000 0.000000 0.000000 7.376500 -18.305900 4.725700 
-18.487979 18.288835 -4.191884 173.629329 -74.357712 -155.839923 -5.558647 -0.954672 -1.993195 -4.034366 -17.031734 -19.327480 -0.798642 7.346238 18.364160 -6.855424 21.493589 4.174472 0.052300 -1.476100 -4.059900 5.879698 1.051911 -1.036300 10.266414 17.708499 -11.781571 0.167893 -6.778594 17.971134 9.676289 -36.756630 -8.771096 -0.005600 0.481300 -1.322500 -4.925277 0.874683 -6.053013 0.051022 1.181286 -10.578015 -0.295595 0.611342 -2.612093 -6.447876 0.680413 -8.023394 16.453521 -3.105926 26.821660 2.964200 0.001800 4.051500 -7.468747 -7.224931 2.209705 -86.461216 -4.572927 -22.166766 8.599494 -9.131929 -0.877758 -0.107576 0.902948 74.653138 -1.514978 24.632902 -0.254900 -7.125000 0.000000 0.000000 -30.250100 51.824600 -5.502700 6.559976 6.921464 2.148401 90.950172 0.307254 14.114625 -10.081817 13.547825 -1.269910 -0.794276 -0.223878 29.465219 -17.405158 10.823965 -3.442300 7.125000 0.000000 0.000000 7.226300 -18.063700 4.666800 
-18.478554 18.290720 -4.193769 173.615371 -74.513949 -155.841743 -5.551493 -0.985265 -1.956052 -4.013543 -16.845592 -19.446512 -0.798725 7.319856 18.321062 -6.755729 21.282466 4.490441 0.098800 -2.027100 -5.580600 5.880624 1.022212 -0.995902 10.299071 17.707703 -11.945982 0.137839 -6.842629 18.152897 9.697703 -36.826480 -8.741704 -0.007700 0.567700 -1.559900 -4.622237 1.100555 -7.856993 -0.248762 1.570860 -8.853249 -0.592892 0.723467 -0.209513 -6.475541 0.543413 -8.933950 16.715548 -3.119947 25.448584 2.983900 -0.048500 3.969500 -7.446494 -7.340922 2.232685 -85.989154 -7.109777 -22.817955 8.399705 -8.938999 -0.856435 -0.072850 0.917896 75.883464 -1.044891 24.683985 -0.056300 -7.125000 0.000000 0.000000 -29.831700 51.930600 -5.496300 6.553550 6.800978 2.068782 90.861576 2.658271 14.022328 -9.972315 13.421389 -1.242644 -0.779647 -0.228214 29.163654 -17.282603 10.659832 -3.367700 7.125000 0.000000 0.000000 7.304200 -18.249800 4.687700 
-18.468463 18.288613 -4.195433 173.437478 -74.614011 -155.631272 -5.535558 -1.019837 -1.957508 -4.086221 -16.492212 -19.641017 -0.803334 7.319315 18.312878 -6.624003 21.000503 4.787277 0.168500 -2.644100 -7.289400 5.861391 1.048737 -1.006774 10.291014 17.541159 -12.142058 0.122501 -6.887881 18.306514 9.639642 -36.641148 -8.984854 -0.004000 0.410700 -1.128600 -4.591322 1.167168 -7.632628 -0.321826 1.640857 -8.807810 -0.676257 0.761844 -0.310136 -6.639932 0.506536 -8.881960 16.843108 -3.197858 25.351428 3.026600 -0.093900 3.946200 -7.440770 -7.359376 2.236766 -85.967677 -7.077015 -21.488670 8.445268 -8.941186 -0.863406 -0.077547 0.917071 74.490287 -0.538902 24.809130 0.153000 -7.125000 0.000000 0.000000 -29.437000 52.105500 -5.545400 6.558794 6.779095 2.056411 90.941669 2.620634 14.124108 -10.082220 13.557597 -1.255970 -0.768358 -0.230722 28.990253 -17.001440 10.483460 -3.256700 7.125000 0.000000 0.000000 7.495600 -18.458400 4.777800 
-18.459704 18.285287 -4.195322 173.343182 -74.661446 -155.387376 -5.504410 -1.079412 -1.976105 -4.127219 -16.137686 -19.975628 -0.804807 7.336076 18.364039 -6.495096 20.669699 4.823480 0.184400 -2.765800 -7.627300 5.839512 1.085604 -1.014561 10.256908 17.312253 -12.452686 0.114815 -6.909174 18.402424 9.545180 -36.349467 -9.176907 -0.001600 0.255300 -0.701400 -4.570518 1.208784 -7.685968 -0.360919 1.696848 -8.662835 -0.726122 0.790389 -0.136690 -6.806548 0.525630 -8.796626 17.016268 -3.180270 24.885094 3.076300 -0.113300 3.848900 -7.432966 -7.398564 2.239146 -85.919993 -7.299893 -20.635811 8.419052 -8.872804 -0.863839 -0.070562 0.922359 73.526017 0.136348 24.959205 0.436800 -7.125000 0.000000 0.000000 -28.892100 52.326300 -5.591900 6.559935 6.741371 2.035342 90.921456 2.860266 14.406772 -10.055591 13.523063 -1.253210 -0.771775 -0.230650 28.812608 -17.074923 10.597204 -3.304300 7.125000 0.000000 0.000000 7.446900 -18.335600 4.766600 
